<svg xmlns="http://www.w3.org/2000/svg" viewBox="0 0 800 800" width="800" height="800"><g transform="translate(150 190)"><defs><radialGradient id="g-0s" cx="0" cy="0" r="34" gradientUnits="userSpaceOnUse"><stop offset="0" stop-color="#9fe3ff"/><stop offset="1" stop-color="#2a7fe0"/></radialGradient></defs><g transform="scale(1.3)"><g><path d="M0 -1C-5 -21 -29 -31 -35 -17C-38 -7 -21 1 0 -1Z" fill="#14306b"/><path d="M0 1C-17 2 -27 13 -20 22C-12 30 -2 15 0 2Z" fill="#14306b"/><path d="M-1 -2.5C-6 -18 -25 -26 -30 -16.5C-32 -9 -19 -2.5 -1 -2.5Z" fill="url(#g-0s)"/><path d="M-1 2.5C-14 4 -22 12 -17.5 18.5C-11 24 -3 13 -1 3Z" fill="url(#g-0s)"/><path d="M-2 -3L-24 -18M-2 3L-15 17" fill="none" stroke="#14306b" stroke-width="1.1" stroke-linecap="round" opacity=".8"/><circle cx="-31" cy="-20" r="1.4" fill="#ffffff"/><circle cx="-34" cy="-14" r="1.4" fill="#ffffff"/><circle cx="-33" cy="-8.5" r="1.4" fill="#ffffff"/><circle cx="-27" cy="-25.5" r="1.4" fill="#ffffff"/><circle cx="-21" cy="22" r="1.4" fill="#ffffff"/><circle cx="-24" cy="16.5" r="1.4" fill="#ffffff"/><circle cx="-15" cy="25.5" r="1.4" fill="#ffffff"/></g><g transform="scale(-1 1)"><path d="M0 -1C-5 -21 -29 -31 -35 -17C-38 -7 -21 1 0 -1Z" fill="#14306b"/><path d="M0 1C-17 2 -27 13 -20 22C-12 30 -2 15 0 2Z" fill="#14306b"/><path d="M-1 -2.5C-6 -18 -25 -26 -30 -16.5C-32 -9 -19 -2.5 -1 -2.5Z" fill="url(#g-0s)"/><path d="M-1 2.5C-14 4 -22 12 -17.5 18.5C-11 24 -3 13 -1 3Z" fill="url(#g-0s)"/><path d="M-2 -3L-24 -18M-2 3L-15 17" fill="none" stroke="#14306b" stroke-width="1.1" stroke-linecap="round" opacity=".8"/><circle cx="-31" cy="-20" r="1.4" fill="#ffffff"/><circle cx="-34" cy="-14" r="1.4" fill="#ffffff"/><circle cx="-33" cy="-8.5" r="1.4" fill="#ffffff"/><circle cx="-27" cy="-25.5" r="1.4" fill="#ffffff"/><circle cx="-21" cy="22" r="1.4" fill="#ffffff"/><circle cx="-24" cy="16.5" r="1.4" fill="#ffffff"/><circle cx="-15" cy="25.5" r="1.4" fill="#ffffff"/></g><ellipse cx="0" cy="1" rx="2.3" ry="11" fill="#1d1208"/><circle cx="0" cy="-10.5" r="2.6" fill="#1d1208"/><path d="M-1 -12q-3 -7 -7.5 -8.5M1 -12q3 -7 7.5 -8.5" fill="none" stroke="#1d1208" stroke-width="1.2" stroke-linecap="round"/><circle cx="-8.2" cy="-20.6" r="1.4" fill="#1d1208"/><circle cx="8.2" cy="-20.6" r="1.4" fill="#1d1208"/></g></g><g transform="translate(690 300)"><defs><radialGradient id="g-1s" cx="0" cy="0" r="34" gradientUnits="userSpaceOnUse"><stop offset="0" stop-color="#ffd36b"/><stop offset="1" stop-color="#f07b14"/></radialGradient></defs><g transform="scale(1.4)"><g><path d="M0 -1C-5 -21 -29 -31 -35 -17C-38 -7 -21 1 0 -1Z" fill="#2a1607"/><path d="M0 1C-17 2 -27 13 -20 22C-12 30 -2 15 0 2Z" fill="#2a1607"/><path d="M-1 -2.5C-6 -18 -25 -26 -30 -16.5C-32 -9 -19 -2.5 -1 -2.5Z" fill="url(#g-1s)"/><path d="M-1 2.5C-14 4 -22 12 -17.5 18.5C-11 24 -3 13 -1 3Z" fill="url(#g-1s)"/><path d="M-2 -3L-26 -21M-2 -3L-30 -12M-2 -3L-18 -25M-2 3L-19 17M-2 3L-12 22" fill="none" stroke="#2a1607" stroke-width="1.1" stroke-linecap="round" opacity=".8"/><circle cx="-31" cy="-20" r="1.4" fill="#ffffff"/><circle cx="-34" cy="-14" r="1.4" fill="#ffffff"/><circle cx="-33" cy="-8.5" r="1.4" fill="#ffffff"/><circle cx="-27" cy="-25.5" r="1.4" fill="#ffffff"/><circle cx="-21" cy="22" r="1.4" fill="#ffffff"/><circle cx="-24" cy="16.5" r="1.4" fill="#ffffff"/><circle cx="-15" cy="25.5" r="1.4" fill="#ffffff"/></g><g transform="scale(-1 1)"><path d="M0 -1C-5 -21 -29 -31 -35 -17C-38 -7 -21 1 0 -1Z" fill="#2a1607"/><path d="M0 1C-17 2 -27 13 -20 22C-12 30 -2 15 0 2Z" fill="#2a1607"/><path d="M-1 -2.5C-6 -18 -25 -26 -30 -16.5C-32 -9 -19 -2.5 -1 -2.5Z" fill="url(#g-1s)"/><path d="M-1 2.5C-14 4 -22 12 -17.5 18.5C-11 24 -3 13 -1 3Z" fill="url(#g-1s)"/><path d="M-2 -3L-26 -21M-2 -3L-30 -12M-2 -3L-18 -25M-2 3L-19 17M-2 3L-12 22" fill="none" stroke="#2a1607" stroke-width="1.1" stroke-linecap="round" opacity=".8"/><circle cx="-31" cy="-20" r="1.4" fill="#ffffff"/><circle cx="-34" cy="-14" r="1.4" fill="#ffffff"/><circle cx="-33" cy="-8.5" r="1.4" fill="#ffffff"/><circle cx="-27" cy="-25.5" r="1.4" fill="#ffffff"/><circle cx="-21" cy="22" r="1.4" fill="#ffffff"/><circle cx="-24" cy="16.5" r="1.4" fill="#ffffff"/><circle cx="-15" cy="25.5" r="1.4" fill="#ffffff"/></g><ellipse cx="0" cy="1" rx="2.3" ry="11" fill="#1d1208"/><circle cx="0" cy="-10.5" r="2.6" fill="#1d1208"/><path d="M-1 -12q-3 -7 -7.5 -8.5M1 -12q3 -7 7.5 -8.5" fill="none" stroke="#1d1208" stroke-width="1.2" stroke-linecap="round"/><circle cx="-8.2" cy="-20.6" r="1.4" fill="#1d1208"/><circle cx="8.2" cy="-20.6" r="1.4" fill="#1d1208"/></g></g><g transform="translate(560 690)"><defs><radialGradient id="g-2s" cx="0" cy="0" r="34" gradientUnits="userSpaceOnUse"><stop offset="0" stop-color="#c9f6f2"/><stop offset="1" stop-color="#2bb3c8"/></radialGradient></defs><g transform="scale(1.1)"><g><path d="M0 -1C-5 -21 -29 -31 -35 -17C-38 -7 -21 1 0 -1Z" fill="#0f5560"/><path d="M0 1C-17 2 -27 13 -20 22C-12 30 -2 15 0 2Z" fill="#0f5560"/><path d="M-1 -2.5C-6 -18 -25 -26 -30 -16.5C-32 -9 -19 -2.5 -1 -2.5Z" fill="url(#g-2s)"/><path d="M-1 2.5C-14 4 -22 12 -17.5 18.5C-11 24 -3 13 -1 3Z" fill="url(#g-2s)"/><path d="M-2 -3L-24 -18M-2 3L-15 17" fill="none" stroke="#0f5560" stroke-width="1.1" stroke-linecap="round" opacity=".8"/><circle cx="-31" cy="-20" r="1.4" fill="#ffffff"/><circle cx="-34" cy="-14" r="1.4" fill="#ffffff"/><circle cx="-33" cy="-8.5" r="1.4" fill="#ffffff"/><circle cx="-27" cy="-25.5" r="1.4" fill="#ffffff"/><circle cx="-21" cy="22" r="1.4" fill="#ffffff"/><circle cx="-24" cy="16.5" r="1.4" fill="#ffffff"/><circle cx="-15" cy="25.5" r="1.4" fill="#ffffff"/></g><g transform="scale(-1 1)"><path d="M0 -1C-5 -21 -29 -31 -35 -17C-38 -7 -21 1 0 -1Z" fill="#0f5560"/><path d="M0 1C-17 2 -27 13 -20 22C-12 30 -2 15 0 2Z" fill="#0f5560"/><path d="M-1 -2.5C-6 -18 -25 -26 -30 -16.5C-32 -9 -19 -2.5 -1 -2.5Z" fill="url(#g-2s)"/><path d="M-1 2.5C-14 4 -22 12 -17.5 18.5C-11 24 -3 13 -1 3Z" fill="url(#g-2s)"/><path d="M-2 -3L-24 -18M-2 3L-15 17" fill="none" stroke="#0f5560" stroke-width="1.1" stroke-linecap="round" opacity=".8"/><circle cx="-31" cy="-20" r="1.4" fill="#ffffff"/><circle cx="-34" cy="-14" r="1.4" fill="#ffffff"/><circle cx="-33" cy="-8.5" r="1.4" fill="#ffffff"/><circle cx="-27" cy="-25.5" r="1.4" fill="#ffffff"/><circle cx="-21" cy="22" r="1.4" fill="#ffffff"/><circle cx="-24" cy="16.5" r="1.4" fill="#ffffff"/><circle cx="-15" cy="25.5" r="1.4" fill="#ffffff"/></g><ellipse cx="0" cy="1" rx="2.3" ry="11" fill="#1d1208"/><circle cx="0" cy="-10.5" r="2.6" fill="#1d1208"/><path d="M-1 -12q-3 -7 -7.5 -8.5M1 -12q3 -7 7.5 -8.5" fill="none" stroke="#1d1208" stroke-width="1.2" stroke-linecap="round"/><circle cx="-8.2" cy="-20.6" r="1.4" fill="#1d1208"/><circle cx="8.2" cy="-20.6" r="1.4" fill="#1d1208"/></g></g><g transform="translate(420 80)"><defs><radialGradient id="g-3s" cx="0" cy="0" r="34" gradientUnits="userSpaceOnUse"><stop offset="0" stop-color="#ffd1e6"/><stop offset="1" stop-color="#e85a9b"/></radialGradient></defs><g transform="scale(1.1)"><g><path d="M0 -1C-5 -21 -29 -31 -35 -17C-38 -7 -21 1 0 -1Z" fill="#7a2350"/><path d="M0 1C-17 2 -27 13 -20 22C-12 30 -2 15 0 2Z" fill="#7a2350"/><path d="M-1 -2.5C-6 -18 -25 -26 -30 -16.5C-32 -9 -19 -2.5 -1 -2.5Z" fill="url(#g-3s)"/><path d="M-1 2.5C-14 4 -22 12 -17.5 18.5C-11 24 -3 13 -1 3Z" fill="url(#g-3s)"/><path d="M-2 -3L-24 -18M-2 3L-15 17" fill="none" stroke="#7a2350" stroke-width="1.1" stroke-linecap="round" opacity=".8"/><circle cx="-31" cy="-20" r="1.4" fill="#ffffff"/><circle cx="-34" cy="-14" r="1.4" fill="#ffffff"/><circle cx="-33" cy="-8.5" r="1.4" fill="#ffffff"/><circle cx="-27" cy="-25.5" r="1.4" fill="#ffffff"/><circle cx="-21" cy="22" r="1.4" fill="#ffffff"/><circle cx="-24" cy="16.5" r="1.4" fill="#ffffff"/><circle cx="-15" cy="25.5" r="1.4" fill="#ffffff"/></g><g transform="scale(-1 1)"><path d="M0 -1C-5 -21 -29 -31 -35 -17C-38 -7 -21 1 0 -1Z" fill="#7a2350"/><path d="M0 1C-17 2 -27 13 -20 22C-12 30 -2 15 0 2Z" fill="#7a2350"/><path d="M-1 -2.5C-6 -18 -25 -26 -30 -16.5C-32 -9 -19 -2.5 -1 -2.5Z" fill="url(#g-3s)"/><path d="M-1 2.5C-14 4 -22 12 -17.5 18.5C-11 24 -3 13 -1 3Z" fill="url(#g-3s)"/><path d="M-2 -3L-24 -18M-2 3L-15 17" fill="none" stroke="#7a2350" stroke-width="1.1" stroke-linecap="round" opacity=".8"/><circle cx="-31" cy="-20" r="1.4" fill="#ffffff"/><circle cx="-34" cy="-14" r="1.4" fill="#ffffff"/><circle cx="-33" cy="-8.5" r="1.4" fill="#ffffff"/><circle cx="-27" cy="-25.5" r="1.4" fill="#ffffff"/><circle cx="-21" cy="22" r="1.4" fill="#ffffff"/><circle cx="-24" cy="16.5" r="1.4" fill="#ffffff"/><circle cx="-15" cy="25.5" r="1.4" fill="#ffffff"/></g><ellipse cx="0" cy="1" rx="2.3" ry="11" fill="#1d1208"/><circle cx="0" cy="-10.5" r="2.6" fill="#1d1208"/><path d="M-1 -12q-3 -7 -7.5 -8.5M1 -12q3 -7 7.5 -8.5" fill="none" stroke="#1d1208" stroke-width="1.2" stroke-linecap="round"/><circle cx="-8.2" cy="-20.6" r="1.4" fill="#1d1208"/><circle cx="8.2" cy="-20.6" r="1.4" fill="#1d1208"/></g></g></svg>