<svg xmlns="http://www.w3.org/2000/svg" viewBox="0 0 800 800" width="800" height="800"><g transform="translate(42.7 455)"><g fill="#2e1b0e" stroke="#2e1b0e" stroke-width="1.3" stroke-linejoin="round"><path d="M0 -7C5 -6 7 0 0 7C-7 0 -5 -6 0 -7Z"/></g><g fill="#ffffff"><path d="M0 -7C5 -6 7 0 0 7C-7 0 -5 -6 0 -7Z"/></g></g><g transform="translate(115 379.8)"><g fill="#2e1b0e" stroke="#2e1b0e" stroke-width="1.3" stroke-linejoin="round"><path d="M0 -7C5 -6 7 0 0 7C-7 0 -5 -6 0 -7Z"/></g><g fill="#ffc1d6"><path d="M0 -7C5 -6 7 0 0 7C-7 0 -5 -6 0 -7Z"/></g></g><g transform="translate(183.4 163.1)"><g fill="#2e1b0e" stroke="#2e1b0e" stroke-width="1.3" stroke-linejoin="round"><path d="M0 -7C5 -6 7 0 0 7C-7 0 -5 -6 0 -7Z"/></g><g fill="#ffc1d6"><path d="M0 -7C5 -6 7 0 0 7C-7 0 -5 -6 0 -7Z"/></g></g><g transform="translate(247.9 575.6)"><g fill="#2e1b0e" stroke="#2e1b0e" stroke-width="1.3" stroke-linejoin="round"><path d="M0 -7C5 -6 7 0 0 7C-7 0 -5 -6 0 -7Z"/></g><g fill="#ffc1d6"><path d="M0 -7C5 -6 7 0 0 7C-7 0 -5 -6 0 -7Z"/></g></g><g transform="translate(300.6 464.4)"><g fill="#2e1b0e" stroke="#2e1b0e" stroke-width="1.3" stroke-linejoin="round"><path d="M0 -7C5 -6 7 0 0 7C-7 0 -5 -6 0 -7Z"/></g><g fill="#ffc1d6"><path d="M0 -7C5 -6 7 0 0 7C-7 0 -5 -6 0 -7Z"/></g></g><g transform="translate(371.8 604.6)"><g fill="#2e1b0e" stroke="#2e1b0e" stroke-width="1.3" stroke-linejoin="round"><path d="M0 -7C5 -6 7 0 0 7C-7 0 -5 -6 0 -7Z"/></g><g fill="#ffc1d6"><path d="M0 -7C5 -6 7 0 0 7C-7 0 -5 -6 0 -7Z"/></g></g><g transform="translate(420.4 207.6)"><g fill="#2e1b0e" stroke="#2e1b0e" stroke-width="1.3" stroke-linejoin="round"><path d="M0 -7C5 -6 7 0 0 7C-7 0 -5 -6 0 -7Z"/></g><g fill="#ffd3e2"><path d="M0 -7C5 -6 7 0 0 7C-7 0 -5 -6 0 -7Z"/></g></g><g transform="translate(497 626.8)"><g fill="#2e1b0e" stroke="#2e1b0e" stroke-width="1.3" stroke-linejoin="round"><path d="M0 -7C5 -6 7 0 0 7C-7 0 -5 -6 0 -7Z"/></g><g fill="#ffc1d6"><path d="M0 -7C5 -6 7 0 0 7C-7 0 -5 -6 0 -7Z"/></g></g><g transform="translate(548.1 523.7)"><g fill="#2e1b0e" stroke="#2e1b0e" stroke-width="1.3" stroke-linejoin="round"><path d="M0 -7C5 -6 7 0 0 7C-7 0 -5 -6 0 -7Z"/></g><g fill="#ffffff"><path d="M0 -7C5 -6 7 0 0 7C-7 0 -5 -6 0 -7Z"/></g></g><g transform="translate(620 645.2)"><g fill="#2e1b0e" stroke="#2e1b0e" stroke-width="1.3" stroke-linejoin="round"><path d="M0 -7C5 -6 7 0 0 7C-7 0 -5 -6 0 -7Z"/></g><g fill="#ffc1d6"><path d="M0 -7C5 -6 7 0 0 7C-7 0 -5 -6 0 -7Z"/></g></g><g transform="translate(683 625.5)"><g fill="#2e1b0e" stroke="#2e1b0e" stroke-width="1.3" stroke-linejoin="round"><path d="M0 -7C5 -6 7 0 0 7C-7 0 -5 -6 0 -7Z"/></g><g fill="#ffffff"><path d="M0 -7C5 -6 7 0 0 7C-7 0 -5 -6 0 -7Z"/></g></g><g transform="translate(734.1 388.8)"><g fill="#2e1b0e" stroke="#2e1b0e" stroke-width="1.3" stroke-linejoin="round"><path d="M0 -7C5 -6 7 0 0 7C-7 0 -5 -6 0 -7Z"/></g><g fill="#ffc1d6"><path d="M0 -7C5 -6 7 0 0 7C-7 0 -5 -6 0 -7Z"/></g></g><g transform="translate(150 190)"><defs><radialGradient id="g-p0s" cx="0" cy="0" r="34" gradientUnits="userSpaceOnUse"><stop offset="0" stop-color="#9fe3ff"/><stop offset="1" stop-color="#2a7fe0"/></radialGradient></defs><g transform="scale(1.2)"><g><path d="M0 -1C-5 -21 -29 -31 -35 -17C-38 -7 -21 1 0 -1Z" fill="#14306b"/><path d="M0 1C-17 2 -27 13 -20 22C-12 30 -2 15 0 2Z" fill="#14306b"/><path d="M-1 -2.5C-6 -18 -25 -26 -30 -16.5C-32 -9 -19 -2.5 -1 -2.5Z" fill="url(#g-p0s)"/><path d="M-1 2.5C-14 4 -22 12 -17.5 18.5C-11 24 -3 13 -1 3Z" fill="url(#g-p0s)"/><path d="M-2 -3L-24 -18M-2 3L-15 17" fill="none" stroke="#14306b" stroke-width="1.1" stroke-linecap="round" opacity=".8"/><circle cx="-31" cy="-20" r="1.4" fill="#ffffff"/><circle cx="-34" cy="-14" r="1.4" fill="#ffffff"/><circle cx="-33" cy="-8.5" r="1.4" fill="#ffffff"/><circle cx="-27" cy="-25.5" r="1.4" fill="#ffffff"/><circle cx="-21" cy="22" r="1.4" fill="#ffffff"/><circle cx="-24" cy="16.5" r="1.4" fill="#ffffff"/><circle cx="-15" cy="25.5" r="1.4" fill="#ffffff"/></g><g transform="scale(-1 1)"><path d="M0 -1C-5 -21 -29 -31 -35 -17C-38 -7 -21 1 0 -1Z" fill="#14306b"/><path d="M0 1C-17 2 -27 13 -20 22C-12 30 -2 15 0 2Z" fill="#14306b"/><path d="M-1 -2.5C-6 -18 -25 -26 -30 -16.5C-32 -9 -19 -2.5 -1 -2.5Z" fill="url(#g-p0s)"/><path d="M-1 2.5C-14 4 -22 12 -17.5 18.5C-11 24 -3 13 -1 3Z" fill="url(#g-p0s)"/><path d="M-2 -3L-24 -18M-2 3L-15 17" fill="none" stroke="#14306b" stroke-width="1.1" stroke-linecap="round" opacity=".8"/><circle cx="-31" cy="-20" r="1.4" fill="#ffffff"/><circle cx="-34" cy="-14" r="1.4" fill="#ffffff"/><circle cx="-33" cy="-8.5" r="1.4" fill="#ffffff"/><circle cx="-27" cy="-25.5" r="1.4" fill="#ffffff"/><circle cx="-21" cy="22" r="1.4" fill="#ffffff"/><circle cx="-24" cy="16.5" r="1.4" fill="#ffffff"/><circle cx="-15" cy="25.5" r="1.4" fill="#ffffff"/></g><ellipse cx="0" cy="1" rx="2.3" ry="11" fill="#1d1208"/><circle cx="0" cy="-10.5" r="2.6" fill="#1d1208"/><path d="M-1 -12q-3 -7 -7.5 -8.5M1 -12q3 -7 7.5 -8.5" fill="none" stroke="#1d1208" stroke-width="1.2" stroke-linecap="round"/><circle cx="-8.2" cy="-20.6" r="1.4" fill="#1d1208"/><circle cx="8.2" cy="-20.6" r="1.4" fill="#1d1208"/></g></g><g transform="translate(690 300)"><defs><radialGradient id="g-p1s" cx="0" cy="0" r="34" gradientUnits="userSpaceOnUse"><stop offset="0" stop-color="#ffd36b"/><stop offset="1" stop-color="#f07b14"/></radialGradient></defs><g transform="scale(1.3)"><g><path d="M0 -1C-5 -21 -29 -31 -35 -17C-38 -7 -21 1 0 -1Z" fill="#2a1607"/><path d="M0 1C-17 2 -27 13 -20 22C-12 30 -2 15 0 2Z" fill="#2a1607"/><path d="M-1 -2.5C-6 -18 -25 -26 -30 -16.5C-32 -9 -19 -2.5 -1 -2.5Z" fill="url(#g-p1s)"/><path d="M-1 2.5C-14 4 -22 12 -17.5 18.5C-11 24 -3 13 -1 3Z" fill="url(#g-p1s)"/><path d="M-2 -3L-26 -21M-2 -3L-30 -12M-2 -3L-18 -25M-2 3L-19 17M-2 3L-12 22" fill="none" stroke="#2a1607" stroke-width="1.1" stroke-linecap="round" opacity=".8"/><circle cx="-31" cy="-20" r="1.4" fill="#ffffff"/><circle cx="-34" cy="-14" r="1.4" fill="#ffffff"/><circle cx="-33" cy="-8.5" r="1.4" fill="#ffffff"/><circle cx="-27" cy="-25.5" r="1.4" fill="#ffffff"/><circle cx="-21" cy="22" r="1.4" fill="#ffffff"/><circle cx="-24" cy="16.5" r="1.4" fill="#ffffff"/><circle cx="-15" cy="25.5" r="1.4" fill="#ffffff"/></g><g transform="scale(-1 1)"><path d="M0 -1C-5 -21 -29 -31 -35 -17C-38 -7 -21 1 0 -1Z" fill="#2a1607"/><path d="M0 1C-17 2 -27 13 -20 22C-12 30 -2 15 0 2Z" fill="#2a1607"/><path d="M-1 -2.5C-6 -18 -25 -26 -30 -16.5C-32 -9 -19 -2.5 -1 -2.5Z" fill="url(#g-p1s)"/><path d="M-1 2.5C-14 4 -22 12 -17.5 18.5C-11 24 -3 13 -1 3Z" fill="url(#g-p1s)"/><path d="M-2 -3L-26 -21M-2 -3L-30 -12M-2 -3L-18 -25M-2 3L-19 17M-2 3L-12 22" fill="none" stroke="#2a1607" stroke-width="1.1" stroke-linecap="round" opacity=".8"/><circle cx="-31" cy="-20" r="1.4" fill="#ffffff"/><circle cx="-34" cy="-14" r="1.4" fill="#ffffff"/><circle cx="-33" cy="-8.5" r="1.4" fill="#ffffff"/><circle cx="-27" cy="-25.5" r="1.4" fill="#ffffff"/><circle cx="-21" cy="22" r="1.4" fill="#ffffff"/><circle cx="-24" cy="16.5" r="1.4" fill="#ffffff"/><circle cx="-15" cy="25.5" r="1.4" fill="#ffffff"/></g><ellipse cx="0" cy="1" rx="2.3" ry="11" fill="#1d1208"/><circle cx="0" cy="-10.5" r="2.6" fill="#1d1208"/><path d="M-1 -12q-3 -7 -7.5 -8.5M1 -12q3 -7 7.5 -8.5" fill="none" stroke="#1d1208" stroke-width="1.2" stroke-linecap="round"/><circle cx="-8.2" cy="-20.6" r="1.4" fill="#1d1208"/><circle cx="8.2" cy="-20.6" r="1.4" fill="#1d1208"/></g></g></svg>